<svg width="301" height="237" viewBox="0 0 301 237" fill="none" xmlns="http://www.w3.org/2000/svg">
<path d="M152.224 191.194C192.346 191.194 224.872 158.668 224.872 118.546C224.872 78.4231 192.346 45.8975 152.224 45.8975C112.102 45.8975 79.5759 78.4231 79.5759 118.546C79.5759 158.668 112.102 191.194 152.224 191.194Z" fill="#DBE8EC"/>
<path d="M247.14 104.39V97.0847C247.14 95.6917 246.587 94.3558 245.602 93.3708C244.617 92.3858 243.281 91.8325 241.888 91.8325H223.35C221.957 91.8325 220.621 91.2791 219.636 90.2941C218.651 89.3091 218.098 87.9732 218.098 86.5802V79.2754C218.098 77.8824 218.651 76.5465 219.636 75.5615C220.621 74.5765 221.957 74.0232 223.35 74.0232H223.935C224.625 74.0232 225.308 73.8873 225.945 73.6234C226.582 73.3594 227.161 72.9725 227.649 72.4848C228.137 71.9971 228.524 71.4181 228.787 70.7809C229.051 70.1437 229.187 69.4607 229.187 68.771V61.4661C229.187 60.7763 229.051 60.0934 228.787 59.4561C228.524 58.8189 228.137 58.2399 227.649 57.7522C227.161 57.2645 226.582 56.8776 225.945 56.6137C225.308 56.3497 224.625 56.2139 223.935 56.2139H89.2425C87.8495 56.2139 86.5136 56.7672 85.5286 57.7522C84.5436 58.7372 83.9903 60.0731 83.9903 61.4661V68.771C83.9903 69.4607 84.1261 70.1437 84.3901 70.7809C84.654 71.4181 85.0409 71.9971 85.5286 72.4848C86.0163 72.9725 86.5953 73.3594 87.2326 73.6234C87.8698 73.8873 88.5528 74.0232 89.2425 74.0232C89.9322 74.0232 90.6152 74.159 91.2524 74.423C91.8897 74.6869 92.4687 75.0738 92.9564 75.5615C93.4441 76.0492 93.831 76.6282 94.0949 77.2654C94.3589 77.9027 94.4947 78.5856 94.4947 79.2754V86.5802C94.4947 87.27 94.3589 87.953 94.0949 88.5902C93.831 89.2274 93.4441 89.8064 92.9564 90.2941C92.4687 90.7818 91.8897 91.1687 91.2524 91.4327C90.6152 91.6966 89.9322 91.8325 89.2425 91.8325H68.9317C67.5388 91.8325 66.2029 92.3858 65.2179 93.3708C64.2329 94.3558 63.6795 95.6917 63.6795 97.0847V104.39C63.6795 105.783 64.2329 107.118 65.2179 108.103C66.2029 109.088 67.5388 109.642 68.9317 109.642H76.9014C77.5911 109.642 78.2741 109.778 78.9113 110.042C79.5485 110.306 80.1275 110.692 80.6153 111.18C81.103 111.668 81.4898 112.247 81.7538 112.884C82.0177 113.521 82.1536 114.204 82.1536 114.894V122.199C82.1536 122.889 82.0177 123.572 81.7538 124.209C81.4898 124.846 81.103 125.425 80.6153 125.913C80.1275 126.4 79.5485 126.787 78.9113 127.051C78.2741 127.315 77.5911 127.451 76.9014 127.451H76.8821C76.1924 127.451 75.5094 127.587 74.8722 127.851C74.2349 128.115 73.656 128.502 73.1682 128.989C72.6805 129.477 72.2937 130.056 72.0297 130.693C71.7658 131.331 71.6299 132.014 71.6299 132.703V140.008C71.6299 141.401 72.1833 142.737 73.1682 143.722C74.1532 144.707 75.4891 145.26 76.8821 145.26H78.0352C79.4281 145.26 80.7641 145.814 81.749 146.799C82.734 147.784 83.2874 149.12 83.2874 150.513V157.817C83.2874 158.507 83.1515 159.19 82.8876 159.827C82.6236 160.465 82.2367 161.044 81.749 161.531C81.2613 162.019 80.6823 162.406 80.0451 162.67C79.4079 162.934 78.7249 163.07 78.0352 163.07H59.1118C57.7188 163.07 56.3829 163.623 55.3979 164.608C54.4129 165.593 53.8595 166.929 53.8595 168.322V175.627C53.8595 176.316 53.9954 176.999 54.2593 177.637C54.5233 178.274 54.9102 178.853 55.3979 179.341C55.8856 179.828 56.4646 180.215 57.1018 180.479C57.739 180.743 58.422 180.879 59.1118 180.879H226.755C227.445 180.879 228.128 180.743 228.765 180.479C229.402 180.215 229.981 179.828 230.469 179.341C230.956 178.853 231.343 178.274 231.607 177.637C231.871 176.999 232.007 176.316 232.007 175.627V168.322C232.007 166.929 231.454 165.593 230.469 164.608C229.484 163.623 228.148 163.07 226.755 163.07H222.201C221.511 163.07 220.828 162.934 220.191 162.67C219.554 162.406 218.975 162.019 218.487 161.531C217.999 161.044 217.612 160.465 217.348 159.827C217.085 159.19 216.949 158.507 216.949 157.817V150.513C216.949 149.823 217.085 149.14 217.348 148.503C217.612 147.865 217.999 147.286 218.487 146.799C218.975 146.311 219.554 145.924 220.191 145.66C220.828 145.396 221.511 145.26 222.201 145.26H232.939C233.628 145.26 234.311 145.124 234.949 144.861C235.586 144.597 236.165 144.21 236.652 143.722C237.14 143.234 237.527 142.655 237.791 142.018C238.055 141.381 238.191 140.698 238.191 140.008V132.703C238.191 132.014 238.055 131.331 237.791 130.693C237.527 130.056 237.14 129.477 236.652 128.989C236.165 128.502 235.586 128.115 234.949 127.851C234.311 127.587 233.628 127.451 232.939 127.451H229.681C228.288 127.451 226.952 126.898 225.967 125.913C224.982 124.928 224.429 123.592 224.429 122.199V114.894C224.429 113.501 224.982 112.165 225.967 111.18C226.952 110.195 228.288 109.642 229.681 109.642H241.888C243.281 109.642 244.617 109.088 245.602 108.103C246.587 107.118 247.14 105.783 247.14 104.39Z" fill="#DBE8EC"/>
<path d="M181.955 54.2354H195.949" stroke="#B9D4DB" stroke-width="3" stroke-miterlimit="10" stroke-linecap="round"/>
<path d="M181.955 58.2695H195.949" stroke="#B9D4DB" stroke-width="3" stroke-miterlimit="10" stroke-linecap="round"/>
<path d="M181.955 62.3027H195.949" stroke="#B9D4DB" stroke-width="3" stroke-miterlimit="10" stroke-linecap="round"/>
<path d="M191.649 166.497H205.644" stroke="#B9D4DB" stroke-width="3" stroke-miterlimit="10" stroke-linecap="round"/>
<path d="M191.649 170.531H205.644" stroke="#B9D4DB" stroke-width="3" stroke-miterlimit="10" stroke-linecap="round"/>
<path d="M191.649 174.564H205.644" stroke="#B9D4DB" stroke-width="3" stroke-miterlimit="10" stroke-linecap="round"/>
<path d="M75.5129 99.7842H89.507" stroke="#B9D4DB" stroke-width="3" stroke-miterlimit="10" stroke-linecap="round"/>
<path d="M75.5129 103.817H89.507" stroke="#B9D4DB" stroke-width="3" stroke-miterlimit="10" stroke-linecap="round"/>
<path d="M75.5129 107.851H89.507" stroke="#B9D4DB" stroke-width="3" stroke-miterlimit="10" stroke-linecap="round"/>
<path d="M229.098 153.166L174.876 158.621L120.655 153.166C120.427 153.143 120.216 153.036 120.062 152.866C119.909 152.697 119.824 152.476 119.824 152.247L118.546 148.51L119.824 87.2852L174.876 92.8236L229.929 87.2852L231.143 149.009L229.929 152.247C229.929 152.476 229.844 152.697 229.69 152.866C229.537 153.036 229.326 153.143 229.098 153.166Z" fill="#E06714"/>
<path d="M231.143 149.009L174.876 154.439L118.546 148.511L119.824 84.1243C119.824 83.9953 119.851 83.8677 119.903 83.7498C119.956 83.6318 120.032 83.5262 120.128 83.4397C120.224 83.3531 120.336 83.2876 120.459 83.2473C120.581 83.207 120.711 83.1929 120.839 83.2058L174.876 88.6421L228.913 83.2058C229.042 83.1929 229.171 83.207 229.294 83.2473C229.416 83.2876 229.529 83.3531 229.625 83.4397C229.72 83.5262 229.797 83.6319 229.849 83.7498C229.902 83.8677 229.929 83.9953 229.929 84.1243L231.143 149.009Z" fill="#EE781D"/>
<path d="M174.433 150.119L228.54 144.855L226.284 83.4697L178.472 88.2799L174.433 150.119Z" fill="#E06714"/>
<path d="M174.433 81.4419L221.732 76.125L223.922 145.304L174.433 150.119V81.4419Z" fill="#E06714"/>
<path d="M177.092 80.9994L127.356 80.1133L130.015 147.461L174.433 150.119L177.092 80.9994Z" fill="#E06714"/>
<path d="M174.876 77.7866L222.175 72.4697L225.498 141.811L174.876 146.464V77.7866Z" fill="#F9AE2B"/>
<path d="M174.876 144.168V146.463L225.498 141.811L225.388 139.525L174.876 144.168Z" fill="#E59413"/>
<path d="M174.876 77.7865L125.141 76.9004L127.799 144.248L174.876 146.463V77.7865Z" fill="#F9AE2B"/>
<path d="M127.799 144.248L174.876 146.464V144.099L127.799 141.883V144.248Z" fill="#E59413"/>
<path d="M130.931 121.778C131.073 127.192 132.973 132.412 136.344 136.651C139.714 140.889 144.372 143.916 149.615 145.274L170.335 146.249V80.6663C170.335 80.6663 154.679 81.7779 138.446 77.1371L129.76 76.9824L130.931 121.778Z" fill="#E59413"/>
<path d="M201.296 144.036C206.41 140.387 210.525 135.511 213.263 129.856C216 124.201 217.272 117.949 216.962 111.674L215.064 73.2695L203.593 74.559C193.107 79.868 180.285 83.1954 180.285 83.1954V145.967L201.296 144.036Z" fill="#E59413"/>
<path d="M174.876 77.7863C174.876 77.7863 201.35 70.9186 209.326 61.1709L211.554 106.265C211.986 115.006 209.346 123.623 204.091 130.622C198.836 137.621 191.297 142.56 182.783 144.584L174.876 146.463V77.7863Z" fill="#F9AE2B"/>
<path d="M181.914 77.7864L174.876 146.463C174.876 146.463 183.838 145.786 184.541 145.575C192.41 138.356 196.89 126.228 195.823 115.453L191.533 72.1699C188.685 73.3386 185.894 74.3501 183.433 75.1802C182.531 76.7495 181.914 77.7864 181.914 77.7864Z" fill="#E59413"/>
<path d="M174.876 77.7863C174.876 77.7863 182.519 64.9371 183.406 61.1709L188.785 115.453C189.373 121.386 188.398 127.369 185.959 132.809C183.519 138.249 179.698 142.956 174.876 146.463L174.876 77.7863Z" fill="#F9AE2B"/>
<path d="M174.876 77.7868C174.876 77.7868 153.055 79.3375 134.224 71.1406L135.473 118.898C135.621 124.579 137.704 130.038 141.377 134.374C145.049 138.71 150.092 141.662 155.67 142.743L174.876 146.464V77.7868Z" fill="#F9AE2B"/>
<path d="M174.876 77.7871C175.258 83.5102 175.458 89.2333 175.594 94.9563C175.679 97.8179 175.698 100.679 175.748 103.541L175.799 112.126L175.75 120.71C175.699 123.572 175.683 126.433 175.597 129.295C175.461 135.018 175.261 140.741 174.876 146.464C174.492 140.741 174.291 135.018 174.156 129.295C174.07 126.433 174.054 123.572 174.002 120.71L173.954 112.126L174.005 103.541C174.055 100.679 174.074 97.8179 174.159 94.9563C174.295 89.2333 174.494 83.5102 174.876 77.7871Z" fill="#E59413"/>
<path d="M142.639 87.458C144.966 87.6549 147.249 87.9351 149.531 88.2032L156.349 89.0197C158.619 89.2869 160.887 89.5099 163.164 89.7326C165.443 89.9496 167.721 90.0838 170.054 90.2826C167.781 90.8318 165.456 91.1338 163.118 91.1835C160.787 91.2344 158.454 91.124 156.138 90.8531C153.827 90.582 151.534 90.1724 149.272 89.6264C147.003 89.0937 144.784 88.3683 142.639 87.458Z" fill="#E59413"/>
<path d="M142.639 97.3145C144.966 97.5113 147.249 97.7915 149.531 98.0596L156.349 98.8761C158.619 99.1433 160.887 99.3664 163.164 99.589C165.443 99.806 167.721 99.9403 170.054 100.139C167.781 100.688 165.456 100.99 163.118 101.04C160.787 101.091 158.454 100.98 156.138 100.71C153.827 100.438 151.534 100.029 149.272 99.4829C147.003 98.9502 144.784 98.2247 142.639 97.3145Z" fill="#E59413"/>
<path d="M142.639 107.171C144.966 107.368 147.249 107.648 149.531 107.916L156.349 108.733C158.619 109 160.887 109.223 163.164 109.445C165.443 109.662 167.721 109.797 170.054 109.996C167.781 110.545 165.456 110.847 163.118 110.896C160.787 110.947 158.454 110.837 156.138 110.566C153.827 110.295 151.534 109.885 149.272 109.339C147.003 108.807 144.784 108.081 142.639 107.171Z" fill="#E59413"/>
<path d="M142.639 117.027C144.966 117.224 147.249 117.504 149.531 117.772L156.349 118.589C158.619 118.856 160.887 119.079 163.164 119.302C165.443 119.519 167.721 119.653 170.054 119.852C167.781 120.401 165.456 120.703 163.118 120.753C160.787 120.804 158.454 120.693 156.138 120.422C153.827 120.151 151.534 119.742 149.272 119.196C147.003 118.663 144.784 117.938 142.639 117.027Z" fill="#E59413"/>
<path d="M142.639 126.884C144.966 127.081 147.249 127.361 149.531 127.629L156.349 128.445C158.619 128.713 160.887 128.936 163.164 129.158C165.443 129.375 167.721 129.51 170.054 129.708C167.781 130.258 165.456 130.56 163.118 130.609C160.787 130.66 158.454 130.55 156.138 130.279C153.827 130.008 151.534 129.598 149.272 129.052C147.003 128.52 144.784 127.794 142.639 126.884Z" fill="#E59413"/>
<path d="M207.813 88.7768L197.061 90.5902C196.942 90.6133 196.819 90.6127 196.701 90.5885C196.582 90.5643 196.469 90.5169 196.368 90.4491C196.268 90.3813 196.182 90.2944 196.115 90.1933C196.048 90.0922 196.002 89.9789 195.979 89.8599L195.622 82.093C195.599 81.974 195.6 81.8516 195.624 81.7328C195.648 81.614 195.695 81.5012 195.763 81.4007C195.831 81.3002 195.918 81.2141 196.019 81.1472C196.12 81.0803 196.233 81.034 196.352 81.0109L207.243 78.7728C207.362 78.7497 207.484 78.7502 207.603 78.7744C207.722 78.7986 207.834 78.846 207.935 78.9138C208.035 78.9816 208.122 79.0686 208.188 79.1697C208.255 79.2708 208.302 79.3841 208.325 79.5031L208.543 87.6948C208.59 87.9351 208.539 88.1841 208.402 88.3871C208.265 88.59 208.053 88.7302 207.813 88.7768Z" fill="#EE781D"/>
<path d="M201.709 107.913L190.957 109.726C190.838 109.749 190.715 109.748 190.597 109.724C190.478 109.7 190.365 109.653 190.264 109.585C190.164 109.517 190.078 109.43 190.011 109.329C189.944 109.228 189.898 109.115 189.875 108.996L189.518 101.229C189.471 100.988 189.522 100.739 189.659 100.536C189.796 100.334 190.008 100.193 190.248 100.147L201.139 97.9085C201.258 97.8854 201.38 97.886 201.499 97.9102C201.618 97.9344 201.73 97.9817 201.831 98.0496C201.931 98.1174 202.018 98.2043 202.084 98.3054C202.151 98.4065 202.198 98.5198 202.221 98.6388L202.439 106.831C202.462 106.95 202.462 107.072 202.438 107.191C202.413 107.309 202.366 107.422 202.298 107.523C202.23 107.623 202.144 107.709 202.042 107.776C201.941 107.843 201.828 107.889 201.709 107.913Z" fill="#EE781D"/>
<path d="M190.248 100.147C190.008 100.194 189.796 100.334 189.659 100.537C189.522 100.74 189.471 100.989 189.518 101.229L189.875 108.996C189.921 109.237 190.062 109.449 190.264 109.585C190.467 109.722 190.716 109.773 190.957 109.727L195.184 109.014L194.225 99.3301L190.248 100.147Z" fill="#CE800D"/>
<path d="M205.917 127.048L195.165 128.862C194.925 128.908 194.676 128.858 194.473 128.721C194.27 128.584 194.13 128.372 194.083 128.131L193.726 120.364C193.703 120.245 193.704 120.123 193.728 120.004C193.752 119.886 193.8 119.773 193.868 119.672C193.935 119.572 194.022 119.486 194.123 119.419C194.224 119.352 194.338 119.306 194.457 119.282L205.347 117.044C205.466 117.021 205.588 117.022 205.707 117.046C205.826 117.07 205.939 117.117 206.039 117.185C206.14 117.253 206.226 117.34 206.293 117.441C206.36 117.542 206.406 117.656 206.429 117.775L206.648 125.966C206.671 126.085 206.67 126.208 206.646 126.326C206.622 126.445 206.575 126.558 206.507 126.659C206.439 126.759 206.352 126.845 206.251 126.912C206.15 126.979 206.036 127.025 205.917 127.048Z" fill="#EE781D"/>
<path d="M194.457 119.282C194.216 119.329 194.004 119.469 193.868 119.672C193.731 119.875 193.68 120.124 193.726 120.364L194.083 128.131C194.109 128.263 194.164 128.388 194.243 128.496C194.322 128.604 194.425 128.694 194.542 128.758C195.45 125.573 195.931 122.282 195.973 118.971L194.457 119.282Z" fill="#CE800D"/>
<path d="M144.518 183.897C147.822 183.897 150.5 181.219 150.5 177.915C150.5 174.612 147.822 171.934 144.518 171.934C141.215 171.934 138.537 174.612 138.537 177.915C138.537 181.219 141.215 183.897 144.518 183.897Z" fill="#B9D4DB"/>
<path d="M136.543 166.727C138.256 166.727 139.645 165.339 139.645 163.626C139.645 161.913 138.256 160.524 136.543 160.524C134.83 160.524 133.442 161.913 133.442 163.626C133.442 165.339 134.83 166.727 136.543 166.727Z" fill="#B9D4DB"/>
<path d="M156.832 171.158C159.279 171.158 161.262 169.175 161.262 166.728C161.262 164.281 159.279 162.297 156.832 162.297C154.384 162.297 152.401 164.281 152.401 166.728C152.401 169.175 154.384 171.158 156.832 171.158Z" fill="#B9D4DB"/>
<path d="M80.8671 150.598C84.7976 150.598 87.984 147.412 87.984 143.481C87.984 139.551 84.7976 136.364 80.8671 136.364C76.9366 136.364 73.7502 139.551 73.7502 143.481C73.7502 147.412 76.9366 150.598 80.8671 150.598Z" fill="#B9D4DB"/>
<path d="M67.2677 142.119C69.3151 142.119 70.9748 140.459 70.9748 138.412C70.9748 136.365 69.3151 134.705 67.2677 134.705C65.2204 134.705 63.5607 136.365 63.5607 138.412C63.5607 140.459 65.2204 142.119 67.2677 142.119Z" fill="#B9D4DB"/>
<path d="M70.6727 127.95C71.8537 127.95 72.811 126.992 72.811 125.811C72.811 124.63 71.8537 123.673 70.6727 123.673C69.4917 123.673 68.5344 124.63 68.5344 125.811C68.5344 126.992 69.4917 127.95 70.6727 127.95Z" fill="#B9D4DB"/>
<path d="M82.51 132.449C85.341 132.449 87.636 130.154 87.636 127.323C87.636 124.492 85.341 122.197 82.51 122.197C79.6789 122.197 77.3839 124.492 77.3839 127.323C77.3839 130.154 79.6789 132.449 82.51 132.449Z" fill="#B9D4DB"/>
<path d="M125.662 70.4486C129.593 70.4486 132.779 67.2622 132.779 63.3317C132.779 59.4012 129.593 56.2148 125.662 56.2148C121.732 56.2148 118.546 59.4012 118.546 63.3317C118.546 67.2622 121.732 70.4486 125.662 70.4486Z" fill="#B9D4DB"/>
<path d="M125.951 52.5284C127.999 52.5284 129.658 50.8687 129.658 48.8213C129.658 46.774 127.999 45.1143 125.951 45.1143C123.904 45.1143 122.244 46.774 122.244 48.8213C122.244 50.8687 123.904 52.5284 125.951 52.5284Z" fill="#B9D4DB"/>
<path d="M150.642 54.1962C152.414 54.1962 153.851 52.7597 153.851 50.9878C153.851 49.2158 152.414 47.7793 150.642 47.7793C148.87 47.7793 147.434 49.2158 147.434 50.9878C147.434 52.7597 148.87 54.1962 150.642 54.1962Z" fill="#B9D4DB"/>
<path d="M138.97 50.0081C140.151 50.0081 141.108 49.0507 141.108 47.8698C141.108 46.6888 140.151 45.7314 138.97 45.7314C137.789 45.7314 136.832 46.6888 136.832 47.8698C136.832 49.0507 137.789 50.0081 138.97 50.0081Z" fill="#B9D4DB"/>
<path d="M141.455 64.6672C144.286 64.6672 146.581 62.3722 146.581 59.5411C146.581 56.7101 144.286 54.415 141.455 54.415C138.624 54.415 136.329 56.7101 136.329 59.5411C136.329 62.3722 138.624 64.6672 141.455 64.6672Z" fill="#B9D4DB"/>
<path d="M117.605 140.844L110.317 136.687L106.16 143.975L113.448 148.132L117.605 140.844Z" fill="#DBE8EC"/>
<path d="M145.428 138.966C150.006 135.514 153.458 130.781 155.347 125.367C157.235 119.953 157.476 114.101 156.039 108.55C154.602 102.999 151.551 97.9985 147.272 94.1814C142.993 90.3644 137.678 87.9019 131.999 87.1054C126.321 86.3088 120.534 87.2139 115.37 89.7063C110.206 92.1986 105.897 96.1663 102.987 101.108C100.078 106.049 98.6996 111.742 99.0259 117.467C99.3521 123.191 101.368 128.691 104.82 133.27C107.112 136.31 109.981 138.87 113.262 140.802C116.543 142.734 120.173 144.001 123.944 144.53C127.715 145.059 131.553 144.84 135.239 143.885C138.926 142.93 142.388 141.259 145.428 138.966ZM109.334 129.871C106.553 126.185 104.928 121.757 104.665 117.147C104.401 112.537 105.511 107.952 107.853 103.973C110.195 99.9937 113.664 96.7982 117.822 94.7908C121.98 92.7833 126.641 92.054 131.213 92.6952C135.786 93.3363 140.066 95.319 143.511 98.3926C146.957 101.466 149.414 105.493 150.571 109.963C151.729 114.433 151.534 119.145 150.013 123.505C148.492 127.865 145.712 131.675 142.025 134.455C137.082 138.181 130.861 139.791 124.73 138.932C118.6 138.072 113.062 134.813 109.334 129.871Z" fill="#3086A3"/>
<path opacity="0.76" d="M127.972 139.161C140.865 139.161 151.317 128.709 151.317 115.816C151.317 102.923 140.865 92.4717 127.972 92.4717C115.079 92.4717 104.627 102.923 104.627 115.816C104.627 128.709 115.079 139.161 127.972 139.161Z" fill="white"/>
<path d="M144.639 116.841C144.417 120.457 143.024 123.903 140.672 126.659C138.319 129.414 135.134 131.33 131.598 132.116C128.061 132.903 124.364 132.518 121.065 131.019C117.767 129.521 115.045 126.99 113.311 123.809" stroke="#DBE8EC" stroke-width="10" stroke-miterlimit="10"/>
<path d="M115.651 149.365L103.977 142.706C103.534 142.454 102.97 142.608 102.718 143.051L85.642 172.989C85.3894 173.432 85.5436 173.996 85.9865 174.248L97.661 180.907C98.1038 181.159 98.6676 181.005 98.9202 180.562L115.996 150.624C116.248 150.181 116.094 149.618 115.651 149.365Z" fill="#3086A3"/>
<path d="M98.9201 180.562L115.996 150.624C116.056 150.519 116.095 150.403 116.11 150.282C116.125 150.162 116.116 150.04 116.084 149.923C116.052 149.806 115.998 149.697 115.923 149.601C115.849 149.505 115.757 149.425 115.651 149.365L112.748 147.709C112.96 147.83 113.116 148.031 113.181 148.267C113.245 148.503 113.213 148.755 113.092 148.968L96.0164 178.906C95.9564 179.011 95.8762 179.104 95.7804 179.178C95.6846 179.252 95.5752 179.307 95.4582 179.339C95.3413 179.371 95.2192 179.38 95.099 179.365C94.9787 179.349 94.8626 179.311 94.7573 179.251L97.661 180.907C97.7663 180.967 97.8824 181.006 98.0026 181.021C98.1229 181.036 98.245 181.027 98.3619 180.995C98.4788 180.963 98.5883 180.909 98.6841 180.834C98.7798 180.76 98.8601 180.668 98.9201 180.562Z" fill="#25788E"/>
<path d="M88.4498 174.59L105.525 144.652C105.585 144.547 105.666 144.454 105.761 144.38C105.857 144.306 105.967 144.251 106.084 144.219C106.201 144.187 106.323 144.179 106.443 144.194C106.563 144.209 106.679 144.248 106.785 144.308L110.01 146.147L103.977 142.706C103.764 142.585 103.512 142.553 103.276 142.618C103.04 142.682 102.839 142.838 102.718 143.051L85.642 172.989C85.5207 173.201 85.4889 173.454 85.5535 173.69C85.6181 173.926 85.7738 174.127 85.9864 174.248L88.7942 175.849C88.6889 175.789 88.5965 175.709 88.5222 175.613C88.4479 175.518 88.3932 175.408 88.3612 175.291C88.3292 175.174 88.3205 175.052 88.3357 174.932C88.3509 174.812 88.3897 174.696 88.4498 174.59Z" fill="#409CB5"/>
<path d="M92.0194 177.689L97.6608 180.907H97.6612L92.0194 177.689Z" fill="#409CB5"/>
<path d="M85.9276 171.378L100.161 179.497C100.374 179.618 100.53 179.819 100.595 180.055C100.659 180.291 100.627 180.543 100.506 180.756L99.1473 183.138C98.3483 184.539 97.0255 185.565 95.47 185.991C93.9144 186.416 92.2535 186.206 90.8527 185.407L85.5791 182.399C84.8855 182.004 84.2765 181.475 83.7871 180.845C83.2977 180.214 82.9373 179.492 82.7266 178.722C82.5158 177.952 82.4589 177.148 82.559 176.356C82.659 175.563 82.9142 174.799 83.3098 174.105L84.6685 171.723C84.7898 171.51 84.9906 171.354 85.2267 171.29C85.4628 171.225 85.715 171.257 85.9276 171.378Z" fill="#DBE8EC"/>
<path d="M86.07 175.7L87.4287 173.318C87.55 173.105 87.7508 172.949 87.9869 172.885C88.2231 172.82 88.4752 172.852 88.6879 172.973L100.308 179.601C100.262 179.561 100.213 179.526 100.161 179.497L85.9276 171.378C85.715 171.257 85.4628 171.225 85.2267 171.29C84.9905 171.354 84.7897 171.51 84.6684 171.723L83.3097 174.105C82.5107 175.506 82.301 177.166 82.7266 178.722C83.1521 180.278 84.1782 181.6 85.5791 182.399L88.0386 183.802C86.7389 182.958 85.8111 181.648 85.4451 180.142C85.0792 178.636 85.3027 177.047 86.07 175.7Z" fill="#E8EEEF"/>
<path d="M99.1472 183.138L100.506 180.755C100.627 180.543 100.659 180.291 100.594 180.054C100.53 179.818 100.374 179.618 100.161 179.496L97.2454 177.833C97.4572 177.955 97.6122 178.155 97.6763 178.391C97.7405 178.627 97.7085 178.878 97.5875 179.09L96.2288 181.473C95.4298 182.873 94.1071 183.9 92.5515 184.325C90.996 184.751 89.3351 184.541 87.9342 183.742L85.5742 182.396L85.5791 182.399L90.8527 185.407C91.5463 185.802 92.3111 186.058 93.1033 186.158C93.8956 186.258 94.6997 186.201 95.47 185.99C96.2402 185.779 96.9614 185.419 97.5923 184.93C98.2233 184.44 98.7516 183.831 99.1472 183.138Z" fill="#BAD5DB"/>
</svg>
